<svg xmlns="http://www.w3.org/2000/svg" viewBox="0 0 512 512" style="enable-background:new 0 0 512 512" xml:space="preserve"><path style="fill:#ffe67b" d="M410.151 213.504c-130.682 0 48.138-48.105.164-137.889-.453-.792-.905-1.608-1.36-2.449-20.112-37.243-59.097-62.499-103.893-62.499-65.387 0-118.394 53.8-118.394 120.167 0 33.822 13.771 64.375 35.926 86.211l-3.741 6.459s-41.052 47.502-178.162-5.836c-66.008 66.095-24.135 283.664 135.471 283.664h188.834c133.682-24.092 162.276-219.193 45.155-287.828z"/><path style="fill:#ffa233" d="M410.316 75.615c47.974 89.784-130.846 137.889-.164 137.889 0 0 71.844-36.868 89.826-104.167 8.328-31.16-22.895-27.252-54.839-18.669-18.716 5.027-26.746-.927-34.823-15.053z"/><path style="fill:#000003" d="M510.284 112.091c3.097-11.592 1.999-20.946-3.266-27.802-5.298-6.9-14.189-10.398-26.423-10.398-9.635 0-21.782 2.058-38.226 6.476-3.449.927-6.423 1.396-8.838 1.396-4.431 0-7.883-.842-13.978-11.487a89.275 89.275 0 0 0-1.353-2.433l-.009-.014C395.467 25.985 352.149 0 305.062 0 233.897 0 176 58.692 176 130.835c0 32.605 11.623 63.264 32.911 87.279-5.31 4.127-21.697 14.207-55.022 14.207-30.598 0-67.381-8.275-109.331-24.593a10.67 10.67 0 0 0-11.415 2.403c-37.631 37.681-44.058 119.042-14.95 189.251C47.865 470.952 105.443 512 176.162 512h188.834a10.6 10.6 0 0 0 1.892-.17c33.135-5.972 62.392-22.332 84.614-47.313 20.393-22.925 34.2-52.081 39.929-84.317 5.978-33.635 2.724-67.56-9.408-98.108-10.954-27.582-28.736-50.854-51.905-68.135 23.206-15.312 66.247-49.775 80.166-101.866zm-39.859 264.378c-8.394 47.237-40.752 101.913-106.4 114.197H176.162c-61.662 0-112.057-36.251-138.261-99.455-24.288-58.583-21.408-127.307 5.82-160.97 41.613 15.54 78.646 23.415 110.169 23.415.002 0-.003 0 0 0 51.511 0 70.985-20.804 73.034-23.176.437-.506.825-1.05 1.161-1.628l3.741-6.459a10.666 10.666 0 0 0-1.743-12.944c-21.117-20.813-32.747-48.733-32.747-78.614-.001-60.38 48.325-109.501 107.726-109.501 39.34 0 75.553 21.803 94.508 56.899.437.811.883 1.618 1.339 2.419 18.946 35.405-2.299 62.045-29.844 90.665-13.569 14.098-24.285 25.232-19.042 37.554 4.736 11.135 18.769 15.087 55.103 15.289 49.576 30.444 74.395 89.878 63.299 152.309zm-62.992-173.641c-20.135-.114-29.433-1.493-33.684-2.637 2.824-3.831 8.36-9.582 12.689-14.08 11.978-12.446 26.885-27.933 35.684-47.219 5.48-12.01 7.85-24.053 7.128-36.043 1.369.157 2.792.245 4.282.245 4.345 0 9.048-.696 14.374-2.127 14.388-3.866 25.083-5.745 32.691-5.745 6.253 0 8.914 1.293 9.501 2.057.568.739 1.118 3.531-.423 9.302-14.832 55.505-70.58 89.634-82.242 96.247z"/><path style="fill:#000003" d="M237.943 168.616c5.524-2.052 8.335-8.194 6.283-13.716l-.17-.452c-2.036-5.529-8.169-8.358-13.697-6.321-5.529 2.036-8.359 8.169-6.323 13.697l.191.511c1.598 4.297 5.669 6.953 10.001 6.953a10.66 10.66 0 0 0 3.715-.672zm-8.678-29.805c5.725 0 10.461-4.542 10.655-10.308.916-27.189 18.295-51.567 43.246-60.663 5.535-2.018 8.386-8.14 6.369-13.675-2.019-5.534-8.142-8.389-13.676-6.368-33.044 12.046-56.056 44.19-57.262 79.988-.198 5.888 4.414 10.822 10.301 11.02.124.003.247.006.367.006zM95.447 347.426l-.252-.319c-3.652-4.623-10.361-5.408-14.983-1.758-4.623 3.651-5.409 10.36-1.758 14.982l.234.297a10.647 10.647 0 0 0 8.386 4.067 10.63 10.63 0 0 0 6.595-2.288c4.626-3.646 5.423-10.353 1.778-14.981zm214.363-77.345c-5.688-1.531-11.541 1.843-13.07 7.534-1.53 5.689 1.844 11.541 7.534 13.07 25.422 6.831 42.599 29.923 41.769 56.154-.829 26.265-21.234 58.273-76.017 69.341-72.234 14.59-128.226-24.208-155.174-48.637-4.365-3.957-11.111-3.626-15.068.738-3.957 4.364-3.626 11.111.738 15.068 25.351 22.981 73.962 57.384 137.725 57.384 11.519 0 23.543-1.124 36.003-3.642 66.996-13.534 92.028-55.148 93.116-89.579 1.144-36.177-22.525-68.017-57.556-77.431zm31.042-139.518c8.79 0 15.957-7.19 15.957-16.002s-7.167-16.001-15.957-16.001c-8.786 0-15.956 7.188-15.956 16.001-.002 8.813 7.169 16.002 15.956 16.002z"/><path style="fill:#000003" d="M148.602 357.086c.275 0 .553-.011.829-.032 1.352-.105 33.237-2.573 46.984-5.152a10.663 10.663 0 0 0 8.173-13.792 348.84 348.84 0 0 1-4.4-14.781c10.238.713 22.959 1.171 30.023-.187 5.786-1.113 9.574-6.704 8.462-12.489-1.113-5.786-6.705-9.574-12.489-8.461-6.379 1.227-26.358-.068-38.508-1.38a10.669 10.669 0 0 0-11.689 12.228c.877 5.697 2.846 13.277 4.648 19.597-14.329 1.712-32.598 3.127-32.839 3.145-5.873.451-10.269 5.579-9.817 11.453.428 5.598 5.103 9.851 10.623 9.851z"/></svg>